<?xml version="1.0" standalone="no"?>
<!DOCTYPE svg PUBLIC "-//W3C//DTD SVG 20010904//EN"
 "http://www.w3.org/TR/2001/REC-SVG-20010904/DTD/svg10.dtd">
<svg version="1.0" xmlns="http://www.w3.org/2000/svg"
 width="800.000000pt" height="800.000000pt" viewBox="0 0 800.000000 800.000000"
 preserveAspectRatio="xMidYMid meet">
<metadata>
Created by potrace 1.14, written by Peter Selinger 2001-2017
</metadata>
<g transform="translate(0.000000,800.000000) scale(0.100000,-0.100000)"
fill="#000000" stroke="none">
<path d="M4033 7743 c20 -2 54 -2 75 0 20 2 3 4 -38 4 -41 0 -58 -2 -37 -4z"/>
<path d="M3938 7733 c7 -3 16 -2 19 1 4 3 -2 6 -13 5 -11 0 -14 -3 -6 -6z"/>
<path d="M4238 7723 c7 -3 16 -2 19 1 4 3 -2 6 -13 5 -11 0 -14 -3 -6 -6z"/>
<path d="M4065 7290 c3 -5 11 -10 16 -10 6 0 7 5 4 10 -3 6 -11 10 -16 10 -6
0 -7 -4 -4 -10z"/>
<path d="M3528 7237 c-24 -23 -47 -50 -51 -60 -3 -9 -11 -17 -17 -17 -23 0
-71 -60 -85 -106 -17 -59 -41 -84 -77 -84 -25 0 -27 -2 -16 -19 20 -33 -3 -67
-49 -73 -44 -6 -115 1 -109 11 2 3 -25 6 -59 6 -51 1 -62 -2 -53 -12 6 -7 18
-13 27 -13 14 0 14 -2 1 -10 -13 -8 -13 -11 -1 -19 20 -13 4 -31 -27 -30 -15
1 -35 -2 -44 -6 -12 -5 -18 -3 -18 6 0 8 -11 2 -25 -14 -14 -15 -32 -27 -40
-27 -8 0 -17 -4 -20 -10 -4 -6 1 -7 11 -3 12 4 15 3 10 -6 -11 -17 -53 -32
-106 -37 -44 -5 -82 -24 -47 -24 34 0 17 -29 -20 -36 -58 -10 -85 -27 -128
-82 -22 -28 -49 -53 -60 -56 -10 -3 -16 -8 -12 -12 9 -9 -72 -46 -84 -38 -5 3
-9 -1 -9 -9 0 -7 -19 -28 -42 -45 -99 -73 -121 -111 -82 -143 15 -12 16 -10
10 17 -9 41 6 52 83 60 63 7 67 5 52 -24 -5 -9 -16 -33 -24 -52 -9 -19 -29
-43 -46 -53 -28 -16 -30 -16 -47 0 -16 17 -17 16 -12 -10 7 -37 -14 -54 -47
-37 -14 7 -25 17 -25 22 0 4 -7 8 -15 8 -8 0 -15 -4 -15 -10 0 -15 -46 -12
-87 5 -41 17 -63 19 -63 5 0 -5 7 -10 15 -10 8 0 33 -10 55 -21 33 -17 40 -25
35 -43 -5 -18 -5 -19 5 -3 12 18 46 22 69 8 9 -6 10 -11 2 -15 -6 -4 -11 -12
-11 -17 0 -6 5 -7 10 -4 6 3 10 -1 10 -10 0 -22 -24 -29 -60 -17 -18 7 -32 7
-35 1 -4 -5 0 -9 7 -9 10 0 9 -3 -2 -10 -9 -5 -17 -5 -21 1 -3 6 -11 4 -19 -6
-11 -13 -10 -18 6 -30 10 -8 29 -15 42 -15 27 0 28 -10 2 -38 -12 -12 -18 -22
-15 -22 3 0 -9 -16 -27 -36 -18 -20 -37 -42 -41 -50 -4 -8 -19 -14 -33 -14
-20 0 -24 -4 -19 -19 4 -13 -6 -39 -29 -75 -47 -72 -69 -140 -63 -188 4 -29 1
-40 -11 -48 -11 -6 -12 -10 -4 -10 15 0 5 -51 -12 -62 -8 -5 -7 -8 2 -8 23 0
12 -21 -18 -31 -38 -14 -28 -32 13 -24 30 6 31 5 12 -10 -10 -8 -54 -29 -97
-47 -43 -17 -75 -34 -73 -36 3 -3 -3 -11 -13 -18 -20 -16 -65 -18 -110 -5 -40
12 -42 -2 -2 -19 47 -20 49 -34 4 -26 l-39 7 29 -16 c16 -9 57 -18 90 -21 34
-3 70 -10 81 -14 11 -5 31 -11 45 -12 l25 -3 -24 -14 c-47 -26 -184 -30 -260
-7 -81 24 -95 18 -22 -10 35 -13 91 -27 125 -31 l61 -6 -35 -15 c-22 -9 -52
-12 -82 -9 -28 4 -48 2 -48 -4 0 -5 -12 -7 -27 -4 -28 6 -28 6 2 -8 17 -8 48
-17 70 -21 38 -7 39 -8 17 -20 -12 -7 -19 -15 -15 -20 4 -4 0 -4 -9 -1 -9 4
-30 -1 -47 -9 -16 -9 -37 -16 -46 -16 -15 0 -65 -42 -65 -54 0 -3 17 4 37 16
20 12 33 17 29 10 -5 -8 0 -12 13 -12 10 0 21 -6 23 -12 4 -10 10 -10 32 0 15
6 35 12 44 12 14 -1 12 -5 -8 -21 -16 -14 -34 -19 -53 -16 -22 3 -31 -1 -34
-14 -3 -9 -16 -20 -29 -23 -40 -11 -18 -24 26 -16 37 7 40 6 40 -14 0 -12 -7
-31 -15 -42 -8 -10 -15 -25 -15 -31 0 -19 20 -16 27 5 14 39 56 82 79 82 29 0
41 -23 39 -72 -1 -21 1 -38 5 -38 8 0 30 -81 28 -106 -5 -50 54 -120 90 -107
8 3 12 -6 12 -25 0 -25 3 -29 20 -25 21 6 28 -11 9 -22 -6 -4 -8 -14 -5 -22 3
-8 -1 -21 -9 -29 -17 -17 -20 -44 -6 -44 6 0 22 11 36 24 26 24 58 25 72 3 4
-7 -5 -8 -26 -4 -38 8 -33 -5 9 -23 16 -7 30 -16 30 -19 0 -13 -92 -12 -108 1
-13 11 -14 11 -8 -1 5 -8 3 -17 -5 -23 -9 -6 16 -8 71 -6 l85 3 5 -30 c3 -20
14 -34 33 -43 16 -8 32 -25 37 -38 6 -14 18 -24 29 -24 11 0 23 -4 26 -10 3
-5 19 -10 35 -10 36 0 43 -19 16 -42 -29 -24 -3 -23 49 2 31 15 35 19 18 20
-13 0 -23 4 -23 8 0 14 24 32 43 32 14 0 18 -5 14 -20 -3 -12 0 -20 7 -20 17
0 14 -52 -3 -58 -8 -3 -6 -9 8 -19 12 -8 21 -25 21 -38 0 -13 5 -27 10 -30 6
-3 10 -13 10 -21 0 -8 11 -32 25 -54 14 -22 25 -46 25 -54 0 -8 5 -16 10 -18
12 -4 14 -27 6 -70 -2 -16 -1 -28 4 -28 8 0 12 -8 30 -65 7 -21 6 -31 -2 -36
-9 -6 -8 -13 5 -27 11 -12 17 -36 17 -68 1 -92 50 -110 64 -23 7 47 -4 77 -15
39 -7 -24 -7 -24 -8 -2 -1 12 -6 22 -12 22 -8 0 -8 5 1 15 7 8 9 15 6 15 -4 0
-2 9 4 19 11 22 2 113 -11 105 -13 -7 -11 3 3 26 10 16 10 25 -3 47 -10 17
-14 36 -9 48 4 11 4 22 0 25 -10 7 -20 80 -11 80 5 0 5 21 0 48 -37 226 -30
565 13 621 10 13 18 31 18 40 0 17 18 41 30 41 4 0 5 -37 2 -82 -5 -89 5 -101
16 -21 6 37 11 48 25 48 10 0 21 5 25 11 4 5 26 16 50 23 24 6 46 19 49 27 3
8 17 21 31 28 l25 13 -27 7 c-18 4 -26 13 -26 28 0 12 -3 18 -7 15 -3 -4 -13
-1 -22 7 -9 7 -28 16 -44 20 -25 6 -29 3 -55 -51 l-27 -58 -67 -3 -66 -3 -4
38 c-5 44 25 83 66 83 14 0 50 9 81 21 40 15 55 25 55 40 0 10 -5 19 -11 19
-12 0 -38 29 -39 42 0 4 6 5 13 3 6 -3 18 -1 26 4 12 8 12 12 2 24 -10 13 -7
19 19 38 17 13 28 29 26 36 -3 7 14 35 38 62 23 28 47 61 53 73 6 13 25 53 42
89 17 37 31 76 31 88 0 21 43 71 61 71 5 0 9 4 9 8 0 5 -13 7 -30 4 -34 -5
-34 -4 -19 35 18 45 14 119 -6 140 -17 17 -17 18 -1 21 9 2 15 9 13 15 -2 7 0
20 5 30 6 11 5 17 -3 17 -7 0 0 11 16 26 15 14 29 23 31 21 3 -2 5 -21 6 -41
1 -38 19 -36 25 3 7 48 83 138 83 99 0 -7 10 -18 23 -23 14 -7 21 -17 19 -30
-3 -20 -2 -20 13 -1 16 22 17 76 0 76 -7 0 -7 3 0 8 6 4 16 19 22 35 15 32 48
39 38 7 -5 -14 -2 -20 9 -20 9 0 16 7 16 15 0 9 7 18 15 21 9 4 15 19 15 40 0
31 3 34 33 36 17 1 43 1 57 0 23 -1 23 0 8 12 -20 14 -24 36 -8 36 18 0 10 17
-15 30 -34 18 -31 34 7 45 28 9 32 15 35 50 7 87 9 90 34 88 21 -3 24 2 26 30
1 17 3 43 6 57 2 14 5 30 6 37 0 6 13 13 29 15 15 2 27 9 27 16 0 15 44 51 63
52 6 0 12 4 12 8 0 5 10 13 22 19 17 7 30 5 55 -10 18 -10 33 -23 33 -28 0 -5
11 -7 24 -3 19 4 26 1 31 -15 6 -18 56 -41 93 -41 6 0 12 -4 12 -10 0 -5 9
-10 20 -10 11 0 20 -6 20 -13 0 -7 5 -18 12 -25 8 -8 15 -6 29 9 17 19 17 19
34 -25 11 -27 26 -48 38 -52 11 -4 30 -15 41 -25 11 -11 26 -19 34 -19 21 0
53 -43 39 -52 -8 -5 -6 -8 6 -8 10 0 15 -4 12 -10 -3 -5 0 -10 8 -10 10 0 7
-15 -14 -60 -16 -33 -29 -64 -29 -69 0 -5 -6 -11 -14 -14 -33 -13 -32 -149 1
-161 23 -9 32 10 26 54 -5 35 20 111 35 108 13 -1 27 2 41 11 12 8 12 12 2 25
-8 10 -9 16 -3 16 6 0 14 -4 17 -10 3 -5 11 -10 16 -10 6 0 7 5 4 10 -6 10 32
49 48 50 12 0 -2 -40 -29 -82 -25 -39 -31 -68 -14 -68 6 0 10 -11 10 -25 0
-14 -4 -25 -10 -25 -5 0 -10 -10 -10 -22 0 -21 0 -21 15 -2 13 17 14 17 15 2
0 -9 8 -22 18 -27 10 -6 12 -11 4 -11 -7 0 -10 -4 -7 -10 3 -5 -3 -10 -14 -10
-11 0 -23 -4 -26 -10 -3 -5 -2 -10 3 -10 6 0 8 -9 5 -20 -4 -15 0 -20 16 -20
11 0 24 1 29 2 4 1 9 -11 12 -27 3 -18 12 -31 23 -33 14 -3 18 1 15 15 -2 10
3 23 11 29 12 9 12 15 4 25 -8 11 -8 17 2 26 8 7 16 9 20 4 3 -5 -1 -12 -7
-15 -10 -5 -10 -7 0 -12 6 -3 12 -15 12 -26 0 -19 25 -21 25 -2 0 5 6 18 12
29 10 18 12 18 18 3 4 -9 2 -26 -5 -37 -7 -15 -7 -21 0 -21 7 0 8 -6 0 -19
-13 -25 -13 -34 0 -26 6 4 7 -2 2 -17 -10 -28 -5 -47 30 -115 23 -42 37 -56
82 -78 30 -15 67 -38 81 -50 28 -27 33 -55 10 -55 -17 0 -20 -16 -5 -25 6 -3
10 -13 10 -22 0 -9 7 -25 17 -35 11 -12 12 -18 4 -18 -14 0 -41 24 -41 37 0
12 -47 53 -60 53 -15 0 -12 -16 6 -34 14 -14 14 -17 1 -22 -31 -12 -107 51
-107 88 0 18 -1 18 -16 3 -22 -21 -27 -14 -14 20 8 20 15 26 30 22 27 -7 27
24 0 48 -15 13 -24 15 -31 8 -7 -7 -8 -13 0 -17 5 -4 8 -13 5 -21 -5 -11 -10
-12 -24 -3 -10 7 -16 16 -13 22 3 5 1 6 -5 2 -13 -8 -6 -52 12 -75 9 -12 8
-13 -6 -8 -10 3 -18 2 -18 -3 0 -6 4 -10 10 -10 17 0 50 -34 50 -52 0 -9 12
-29 27 -43 22 -20 24 -25 10 -25 -9 0 -17 -4 -17 -10 0 -5 4 -10 10 -10 5 0 7
-7 4 -15 -4 -9 0 -15 10 -15 9 0 16 -8 16 -20 0 -11 -5 -20 -10 -20 -6 0 -9 5
-8 12 2 7 -7 13 -19 14 -13 1 -23 -3 -23 -9 0 -15 -63 -67 -82 -67 -10 0 -18
-6 -18 -14 0 -25 -43 -96 -62 -102 -10 -3 -16 -10 -13 -15 6 -9 -41 -59 -56
-59 -5 0 -9 8 -9 18 -1 15 -2 14 -12 -3 -6 -11 -12 -21 -13 -23 -6 -7 -34 11
-29 19 3 5 -2 9 -11 9 -9 0 -18 -12 -21 -30 -4 -16 -10 -30 -14 -30 -5 0 -6 9
-3 20 6 23 -15 28 -35 8 -17 -17 -15 -28 5 -28 14 0 13 -3 -5 -16 -12 -8 -27
-12 -32 -9 -6 3 -10 1 -10 -4 0 -6 -9 -11 -20 -11 -14 0 -20 -7 -20 -23 0 -23
3 -24 103 -31 56 -3 122 -9 147 -12 44 -5 45 -5 68 35 20 36 97 101 119 101 4
0 -6 -9 -24 -21 -17 -11 -36 -33 -41 -48 -13 -38 -70 -101 -91 -101 -9 0 -23
6 -30 13 -8 8 -52 12 -144 12 -128 0 -133 -1 -171 -27 -36 -26 -40 -27 -67
-12 -34 17 -38 44 -8 51 16 5 20 12 17 34 -3 18 0 29 7 29 6 0 29 16 51 35 33
29 36 34 18 35 -11 0 -24 -3 -27 -7 -4 -3 -18 -8 -32 -9 -21 -2 -27 2 -32 27
-5 26 -10 29 -42 29 -27 0 -32 3 -21 10 12 8 10 10 -10 10 -18 0 -21 3 -11 9
9 6 10 11 2 15 -6 4 -16 4 -21 1 -6 -3 -17 1 -26 9 -8 9 -25 18 -37 20 -33 6
-117 26 -162 37 -22 6 -62 8 -88 4 -31 -4 -54 -2 -63 6 -11 9 -23 8 -54 -5
-22 -9 -48 -16 -57 -16 -17 0 -73 -47 -73 -62 0 -4 21 -8 48 -9 l47 -1 -35
-15 c-19 -8 -58 -15 -86 -14 -34 0 -56 -5 -64 -14 -7 -8 -21 -15 -30 -15 -30
0 -49 -11 -44 -25 3 -8 -6 -17 -23 -22 l-28 -10 27 -17 c25 -16 28 -16 52 -1
24 16 31 14 27 -7 0 -5 5 -8 13 -8 9 0 12 -7 9 -19 -4 -16 -1 -19 17 -14 17 4
21 2 18 -8 -3 -8 -12 -13 -21 -13 -12 1 -15 -6 -12 -26 3 -22 -7 -39 -47 -81
-28 -30 -57 -69 -65 -86 -7 -18 -17 -33 -22 -33 -10 0 -41 -55 -41 -72 0 -15
57 -8 104 12 57 24 182 26 190 3 4 -9 13 -12 25 -8 22 7 64 -32 57 -52 -3 -6
0 -14 7 -16 7 -3 -5 -12 -25 -21 -21 -9 -38 -18 -38 -21 0 -3 15 -11 33 -18
l32 -14 -32 -7 c-18 -4 -33 -12 -33 -17 0 -11 7 -11 46 0 17 5 37 5 46 0 8 -4
54 -10 102 -13 82 -5 92 -3 149 25 62 29 111 68 134 105 6 10 16 18 22 16 14
-3 14 4 1 28 -8 15 -4 25 21 51 20 21 34 28 38 21 4 -7 12 1 18 21 13 38 27
99 25 109 -1 3 4 8 11 11 17 7 18 -22 1 -125 -38 -241 -200 -504 -338 -551
-55 -19 -113 -23 -63 -5 32 11 36 28 7 28 -11 0 -20 4 -20 8 0 13 57 42 73 36
10 -4 14 1 12 18 -1 13 -4 24 -5 26 -1 1 -3 8 -4 14 -2 20 -31 21 -47 2 -12
-16 -12 -17 2 -12 9 4 20 -1 27 -12 9 -14 8 -19 -3 -24 -8 -3 -18 2 -23 10 -5
9 -13 17 -18 17 -5 1 -8 23 -7 50 2 36 -1 47 -12 47 -11 0 -10 5 5 20 22 22
26 40 10 40 -5 0 -10 -5 -10 -11 0 -6 -7 -9 -15 -5 -8 3 -15 2 -16 -2 -3 -26
-11 -67 -13 -70 -2 -2 -11 4 -20 13 -9 9 -20 13 -26 10 -5 -3 -10 -2 -10 4 0
5 -13 3 -30 -5 -33 -17 -39 -27 -12 -22 9 2 25 -4 35 -13 10 -9 26 -15 36 -12
12 3 20 -2 23 -15 4 -15 2 -19 -8 -15 -16 6 -19 -13 -4 -22 6 -4 8 -11 4 -16
-3 -6 3 -13 15 -16 20 -5 30 -23 13 -23 -4 0 -13 -15 -21 -32 -17 -39 -28 -48
-59 -48 -27 0 -102 -23 -102 -31 0 -3 16 -11 35 -19 20 -8 43 -22 52 -32 16
-18 16 -19 -5 -25 -12 -3 -22 -12 -22 -19 0 -8 -7 -14 -15 -14 -8 0 -14 -3
-13 -7 4 -15 -24 -58 -63 -98 -98 -102 -124 -131 -124 -140 -1 -23 -26 -95
-35 -100 -6 -3 -9 -29 -8 -56 1 -29 -2 -53 -9 -57 -6 -4 -15 -20 -18 -35 -8
-30 -26 -35 -46 -11 -11 14 -13 14 -21 0 -5 -9 -18 -16 -28 -16 -10 0 -23 -6
-27 -12 -4 -7 -17 -18 -28 -24 -22 -12 -33 -44 -16 -44 6 0 11 6 11 14 0 16
30 30 41 19 19 -20 -19 -41 -80 -47 -35 -3 -60 -2 -56 2 4 4 11 8 16 8 5 1 14
2 19 3 15 2 12 20 -5 37 -13 14 -16 12 -27 -13 -9 -22 -12 -24 -15 -10 -3 9
-13 17 -23 17 -16 0 -21 10 -26 51 -4 28 -13 53 -20 56 -9 3 -11 15 -8 33 5
24 2 28 -22 33 -49 9 -56 1 -56 -63 0 -39 2 -49 15 -62 8 -7 19 -31 26 -53 17
-55 28 -81 62 -149 21 -41 25 -55 13 -45 -15 13 -16 12 -9 -11 4 -14 13 -35
21 -47 8 -12 14 -31 14 -41 0 -10 5 -23 11 -29 6 -6 12 -17 13 -24 2 -8 13
-34 24 -59 12 -25 22 -52 22 -61 0 -9 9 -24 20 -34 11 -10 20 -26 20 -36 0
-10 6 -24 13 -31 8 -7 17 -25 20 -40 4 -15 14 -33 22 -42 8 -8 15 -19 15 -25
0 -6 5 -11 11 -11 6 0 9 -7 5 -15 -3 -8 -1 -15 4 -15 6 0 10 -6 10 -13 0 -7
11 -21 25 -31 14 -10 25 -25 25 -32 0 -8 11 -14 25 -14 14 0 29 -8 35 -19 8
-16 6 -21 -18 -29 -23 -9 -21 -10 18 -6 43 4 46 3 68 -31 12 -20 22 -41 22
-46 0 -8 15 -13 33 -10 4 0 7 -4 7 -9 0 -6 -4 -10 -10 -10 -5 0 -7 -7 -4 -15
4 -9 11 -15 18 -14 6 1 18 1 26 0 13 -1 13 -3 1 -10 -12 -8 -8 -11 15 -16 39
-8 60 -21 57 -34 -2 -6 20 -20 47 -32 28 -12 50 -25 50 -30 0 -10 77 -32 89
-25 5 3 12 -1 15 -10 3 -8 11 -12 17 -9 6 4 29 4 52 1 32 -5 48 -15 67 -41 14
-18 39 -39 57 -46 18 -7 30 -16 27 -21 -3 -4 2 -5 11 -2 10 4 23 -3 36 -20 19
-25 24 -26 88 -21 54 5 71 3 81 -10 7 -8 19 -15 27 -15 8 0 12 -4 9 -9 -4 -5
10 -24 29 -42 19 -19 35 -37 35 -41 0 -17 43 -50 59 -45 9 2 22 -2 29 -10 10
-10 10 -13 0 -13 -8 0 -6 -5 5 -11 9 -6 15 -14 12 -20 -4 -5 5 -9 19 -9 14 0
26 -4 26 -10 0 -5 8 -10 17 -10 13 0 14 -3 5 -12 -7 -7 -12 -22 -12 -35 0 -13
-4 -23 -10 -23 -5 0 -10 7 -10 17 0 27 -9 9 -15 -31 -4 -23 -2 -43 6 -52 9
-11 9 -14 -2 -14 -9 0 -10 -3 -4 -8 15 -10 18 -48 6 -71 -8 -15 -7 -20 7 -26
15 -7 15 -8 -3 -15 -19 -8 -19 -9 3 -9 16 -1 21 -5 15 -13 -13 -22 -10 -90 4
-95 7 -3 13 -14 13 -24 0 -10 5 -19 11 -19 5 0 8 -4 4 -10 -3 -5 -12 -7 -20
-4 -10 4 -12 0 -8 -15 3 -11 9 -19 13 -16 5 3 6 -4 3 -15 -6 -23 12 -27 21 -5
3 8 11 15 17 15 7 0 8 -4 2 -12 -5 -7 -9 -29 -9 -49 1 -29 -2 -35 -16 -31 -19
5 -25 22 -8 22 6 0 10 5 10 10 0 6 -7 10 -15 10 -8 0 -15 5 -15 11 0 6 -7 4
-15 -5 -22 -22 -18 -41 10 -54 27 -13 37 -56 10 -46 -8 4 -15 13 -15 22 0 13
-3 12 -20 -3 -12 -11 -29 -16 -45 -13 -14 3 -25 1 -25 -5 0 -6 18 -8 45 -5 43
5 45 5 39 -18 -5 -18 -2 -24 10 -24 9 0 16 -4 16 -10 0 -5 8 -10 17 -10 14 0
14 -3 5 -12 -9 -9 -15 -10 -20 -2 -10 17 -62 14 -62 -2 0 -17 -17 -18 -23 -1
-4 9 -6 9 -6 0 -1 -7 -11 -13 -23 -13 -12 0 -18 -3 -14 -7 11 -12 40 -13 69
-3 15 5 25 5 22 0 -3 -5 0 -10 7 -13 7 -2 2 -2 -11 0 -21 4 -23 2 -12 -11 11
-13 10 -17 -10 -25 -26 -10 -43 -5 -33 10 3 5 10 7 15 4 5 -4 9 -1 9 5 0 7 -7
9 -16 6 -9 -3 -18 -6 -20 -6 -10 0 -2 -30 12 -44 13 -14 14 -16 0 -16 -8 0
-18 5 -21 11 -4 6 -13 8 -21 5 -8 -3 -14 0 -14 6 0 7 -4 7 -14 -1 -8 -7 -12
-21 -9 -32 5 -19 7 -19 24 -3 11 10 22 14 26 10 9 -9 -13 -24 -47 -33 -14 -3
-32 -13 -40 -22 -13 -13 -13 -14 2 -8 10 3 20 2 23 -2 7 -13 -29 -20 -70 -14
-20 3 -42 0 -49 -6 -7 -6 -16 -8 -19 -5 -3 4 -35 6 -69 5 -54 -1 -74 4 -128
32 -78 40 -110 60 -171 107 -96 75 -296 261 -346 322 -88 108 -96 115 -55 53
96 -145 390 -444 613 -620 92 -73 227 -193 243 -217 14 -20 14 -20 93 8 228
80 471 217 773 438 154 112 321 286 381 395 11 20 28 50 39 68 23 38 65 143
79 199 6 22 11 83 12 135 0 96 -7 129 -51 222 -23 48 -23 52 -16 290 8 288 13
367 27 427 12 57 29 100 39 100 4 0 10 8 14 18 3 9 10 24 15 32 14 22 41 86
41 97 0 5 14 22 30 38 17 16 28 35 26 42 -3 7 3 19 14 25 11 7 20 16 20 21 0
4 -4 5 -10 2 -15 -9 -12 12 5 45 9 17 22 30 30 30 11 0 15 11 15 40 0 29 5 43
20 52 11 7 20 20 20 29 0 20 24 80 31 77 2 -2 -2 3 -10 10 -13 10 -12 12 3 12
9 0 15 4 11 9 -3 5 2 16 10 24 8 9 15 25 15 36 0 21 32 37 52 25 10 -6 11 -4
1 7 -17 18 -16 29 2 29 9 0 18 12 21 30 4 16 17 36 31 45 42 28 63 49 63 64 0
8 8 23 17 33 16 18 16 18 0 12 -13 -4 -17 -1 -17 15 0 12 5 21 10 21 6 0 10
-5 10 -11 0 -5 5 -7 11 -3 7 4 -1 14 -20 26 -34 22 -36 26 -20 48 9 13 10 13
6 -2 -4 -11 2 -18 16 -22 33 -9 33 -8 29 28 -3 29 0 36 31 55 42 26 104 40 92
22 -5 -9 0 -12 16 -9 13 1 24 10 25 18 2 24 33 90 44 90 16 0 60 -23 60 -32 0
-4 7 -8 15 -8 11 0 4 12 -20 37 -34 35 -43 71 -16 65 7 -1 22 0 33 4 16 5 19
13 16 42 -1 21 4 52 12 70 14 31 30 43 30 22 0 -5 5 -10 11 -10 5 0 7 5 4 10
-4 6 -1 17 5 25 6 8 9 19 5 26 -5 7 -1 10 11 7 21 -4 30 -68 10 -80 -6 -5 -1
-8 13 -8 21 0 23 3 17 36 -4 19 -9 41 -12 48 -5 14 4 14 124 -6 82 -13 125 -4
129 27 2 11 0 14 -3 8 -4 -8 -27 -13 -63 -13 -48 0 -64 5 -99 31 -23 17 -42
34 -42 39 0 5 33 25 74 45 41 20 83 46 93 58 15 18 15 19 1 9 -10 -8 -26 -11
-38 -7 -11 3 -20 2 -20 -3 0 -6 -13 -15 -30 -20 -30 -11 -30 -11 -14 13 8 13
22 26 30 29 12 5 13 10 4 27 -7 12 -9 36 -5 55 4 26 2 34 -9 34 -21 0 -24 19
-8 64 10 30 12 61 7 116 -13 134 -12 170 5 208 32 69 52 152 52 219 -1 67 -26
214 -42 243 -7 12 0 18 28 26 l37 12 -32 1 c-51 2 -41 27 22 56 30 15 55 31
55 36 0 12 -4 11 -75 -6 -33 -8 -68 -14 -77 -15 -14 0 -168 144 -168 158 0 1
14 8 30 13 17 6 30 15 30 20 0 18 17 8 28 -16 15 -32 15 -48 1 -40 -6 4 -5 -3
3 -14 12 -21 13 -20 18 16 3 21 2 49 -3 63 -5 14 -11 43 -13 64 -5 58 -37 118
-91 169 -220 211 -253 248 -293 332 -8 17 -22 39 -31 50 -9 11 -27 47 -40 80
-13 33 -34 74 -46 91 -13 17 -20 34 -16 37 3 4 -1 15 -10 25 -35 37 -84 98
-93 114 -15 28 -156 168 -169 168 -6 0 -21 13 -33 30 -23 30 -29 56 -12 45 6
-3 10 -1 10 5 0 6 -19 19 -42 29 -24 10 -48 28 -55 39 -7 11 -55 50 -108 87
-52 37 -119 88 -148 114 -28 26 -78 62 -109 80 -32 18 -58 35 -58 37 0 3 17 2
38 0 35 -6 36 -5 7 4 -16 6 -95 13 -175 16 -134 6 -149 5 -199 -15 -53 -22
-167 -31 -191 -16 -5 3 -10 1 -10 -4 0 -14 -90 -14 -124 -1 -20 7 -26 6 -26
-3 0 -8 -13 -13 -35 -13 -19 0 -35 4 -35 8 0 13 -54 -16 -73 -39 -10 -13 -25
-23 -33 -23 -8 0 -14 -4 -14 -8 0 -4 -21 -13 -47 -19 -27 -5 -57 -14 -67 -18
-17 -8 -19 -5 -13 23 6 27 4 32 -13 32 -11 0 -20 -6 -20 -14 0 -10 -9 -13 -28
-11 -16 2 -35 -1 -43 -6 -8 -5 -9 -9 -4 -9 6 0 3 -5 -5 -10 -11 -7 -5 -10 25
-11 l40 -1 -40 -9 c-26 -7 -41 -6 -43 1 -3 7 -10 7 -23 0 -23 -13 -25 -30 -3
-30 8 0 12 -5 8 -11 -4 -8 -9 -8 -17 0 -14 14 -30 14 -22 1 3 -5 -1 -10 -9
-10 -9 0 -16 -6 -16 -14 0 -8 -5 -18 -12 -22 -13 -9 -40 25 -34 43 7 18 -13
27 -29 13 -29 -24 -16 11 15 40 17 15 30 33 30 39 0 6 7 11 15 11 9 0 18 7 21
15 3 8 21 19 40 25 28 10 33 14 23 26 -14 17 -31 18 -47 2 -7 -7 -30 -13 -52
-13 -35 -1 -38 1 -26 14 14 17 31 61 23 61 -3 0 -25 -19 -49 -43z m1239 -12
c31 -8 73 -26 92 -39 20 -13 45 -29 56 -35 26 -14 12 -13 -55 3 -30 7 -54 18
-53 23 1 6 -9 15 -22 21 -16 8 -25 8 -25 1 0 -5 7 -12 15 -15 40 -16 2 -23
-130 -23 -92 -1 -145 2 -145 9 0 5 -9 10 -20 10 -11 0 -20 4 -20 9 0 11 25 21
56 21 13 0 24 4 24 9 0 23 148 27 227 6z m-614 -53 c23 2 32 -1 35 -14 2 -13
-6 -19 -34 -24 -24 -4 -39 -3 -42 4 -2 6 -18 8 -40 5 -35 -5 -36 -5 -17 10 11
9 15 17 8 17 -7 0 -13 4 -13 9 0 6 14 5 35 0 20 -6 50 -9 68 -7z m92 -2 c3 -5
1 -10 -4 -10 -6 0 -11 5 -11 10 0 6 2 10 4 10 3 0 8 -4 11 -10z m140 -40 c-3
-5 -12 -10 -18 -10 -7 0 -6 4 3 10 19 12 23 12 15 0z m946 -368 c32 -27 21
-31 -26 -9 -24 11 -42 24 -39 29 7 11 41 1 65 -20z m-820 -44 c13 -25 11 -40
-3 -36 -7 3 -14 13 -15 24 -1 10 -5 33 -8 49 -5 29 -5 29 6 5 6 -14 15 -33 20
-42z m471 40 c-7 -7 -12 -8 -12 -2 0 14 12 26 19 19 2 -3 -1 -11 -7 -17z m123
-8 c3 -6 -1 -7 -9 -4 -18 7 -21 14 -7 14 6 0 13 -4 16 -10z m49 -25 c11 -8 15
-15 10 -15 -6 0 -19 7 -30 15 -10 8 -14 14 -9 14 6 0 19 -6 29 -14z m77 -5
c10 0 41 -14 68 -30 27 -17 55 -29 63 -28 7 2 12 -4 10 -14 -1 -9 7 -22 18
-28 11 -6 18 -15 15 -21 -8 -12 -42 6 -80 44 -44 43 -67 56 -106 61 -18 3 -35
5 -37 5 -1 1 3 7 10 15 7 8 15 10 16 5 2 -5 12 -9 23 -9z m-506 -30 c3 -5 0
-11 -7 -11 -7 -1 -29 -3 -48 -4 l-35 -4 35 14 c44 17 47 17 55 5z m-128 -36
c-3 -3 -12 -4 -19 -1 -8 3 -5 6 6 6 11 1 17 -2 13 -5z m-52 -14 c-27 -12 -43
-12 -25 0 8 5 22 9 30 9 10 0 8 -3 -5 -9z m775 -20 c12 -16 26 -30 31 -30 13
0 48 -37 42 -44 -4 -3 1 -6 10 -6 10 0 14 -6 11 -14 -3 -8 -1 -17 5 -21 6 -3
11 -16 11 -28 0 -17 -9 -9 -38 33 -20 30 -56 74 -80 98 -24 24 -36 42 -28 42
8 0 24 -13 36 -30z m-2870 -252 c-32 -12 -51 -3 -20 10 14 5 29 7 34 4 5 -3
-1 -9 -14 -14z m2910 -149 c0 -12 -21 -11 -40 1 -13 9 -13 11 0 19 15 10 40
-3 40 -20z m-95 11 c-7 -12 -74 -10 -81 2 -3 4 16 8 41 8 29 0 44 -4 40 -10z
m155 -30 c0 -5 -2 -10 -4 -10 -3 0 -8 5 -11 10 -3 6 -1 10 4 10 6 0 11 -4 11
-10z m-2760 -10 c-8 -5 -24 -9 -35 -9 l-20 0 20 9 c11 5 27 9 35 9 13 1 13 0
0 -9z m2693 -37 c-7 -2 -19 -2 -25 0 -7 3 -2 5 12 5 14 0 19 -2 13 -5z m-13
-27 c0 -11 -19 -15 -25 -6 -3 5 1 10 9 10 9 0 16 -2 16 -4z m30 -18 c0 -18 -2
-20 -9 -8 -6 8 -7 18 -5 22 9 14 14 9 14 -14z m-1160 -82 c0 -3 -4 -8 -10 -11
-5 -3 -10 -1 -10 4 0 6 5 11 10 11 6 0 10 -2 10 -4z m1457 -23 c26 -26 66 -94
68 -118 1 -5 5 -27 9 -48 5 -21 6 -40 3 -43 -3 -3 -19 10 -37 28 l-32 33 5
-35 c3 -19 2 -44 -3 -55 -7 -18 -9 -18 -20 10 -7 17 -13 60 -15 97 -1 37 -7
73 -13 80 -12 15 -13 78 -1 78 5 0 21 -12 36 -27z m-1252 -13 c3 -5 1 -10 -4
-10 -6 0 -11 5 -11 10 0 6 2 10 4 10 3 0 8 -4 11 -10z m-220 -111 c-6 -8 -12
-4 -21 12 -19 35 -17 42 7 20 12 -11 18 -25 14 -32z m60 41 c-3 -5 0 -10 7
-11 7 0 4 -4 -7 -8 -11 -5 -21 -7 -23 -6 -6 5 11 35 20 35 5 0 6 -4 3 -10z
m25 -40 c0 -5 -5 -10 -11 -10 -7 0 -10 -12 -7 -30 3 -16 3 -30 2 -30 -33 0
-44 38 -18 64 18 18 34 21 34 6z m74 -86 c-10 -15 -20 -21 -22 -15 -2 6 1 18
8 26 6 8 9 18 6 24 -3 5 0 11 6 14 20 6 21 -19 2 -49z m358 -6 c-7 -7 -12 -8
-12 -2 0 14 12 26 19 19 2 -3 -1 -11 -7 -17z m1388 -94 c0 -27 -4 -31 -25 -31
-23 0 -25 3 -23 42 1 40 2 41 24 31 18 -8 24 -19 24 -42z m-3315 -44 c24 -26
19 -43 -7 -28 -33 19 -38 29 -34 68 7 56 8 57 17 16 5 -22 16 -47 24 -56z
m3315 -16 c0 -15 -35 -20 -44 -5 -7 11 -1 16 24 18 11 1 20 -4 20 -13z m-3315
-44 c-3 -5 -16 -10 -28 -9 -21 0 -21 1 -2 9 28 12 37 12 30 0z m-413 -165 c3
-13 3 -27 0 -30 -8 -7 -33 46 -26 56 8 14 21 2 26 -26z m318 -41 c0 -27 -20
-36 -38 -17 -19 18 -8 42 17 40 14 -1 21 -8 21 -23z m-25 -64 c-3 -5 -10 -10
-16 -10 -5 0 -9 5 -9 10 0 6 7 10 16 10 8 0 12 -4 9 -10z m-735 -20 c0 -5 -4
-10 -10 -10 -5 0 -10 5 -10 10 0 6 5 10 10 10 6 0 10 -4 10 -10z m750 0 c0 -5
-10 -15 -22 -21 -23 -12 -23 -12 -4 10 21 23 26 26 26 11z m-20 -59 c0 -15
-41 -40 -56 -34 -17 6 -7 31 14 36 30 8 42 7 42 -2z m-857 -26 c-2 -5 -28 -11
-60 -13 -48 -3 -55 -1 -44 11 13 17 108 18 104 2z m-124 -175 c-10 -6 -34 -6
-60 -1 l-44 9 60 1 c42 0 55 -2 44 -9z m3111 -90 c0 -6 -26 -10 -57 -10 -41 0
-54 3 -43 10 20 13 100 13 100 0z m-3197 -7 c-7 -2 -21 -2 -30 0 -10 3 -4 5
12 5 17 0 24 -2 18 -5z m1347 -93 c0 -5 -4 -10 -10 -10 -5 0 -10 5 -10 10 0 6
5 10 10 10 6 0 10 -4 10 -10z m2538 -67 c3 -26 0 -32 -11 -27 -8 3 -18 13 -21
22 -3 9 -9 23 -12 30 -4 10 1 13 17 10 19 -2 25 -10 27 -35z m-93 17 c3 -5 2
-10 -4 -10 -5 0 -13 5 -16 10 -3 6 -2 10 4 10 5 0 13 -4 16 -10z m-1475 -104
c0 -8 5 -16 12 -18 15 -5 -21 -48 -42 -49 -11 0 -11 -2 -2 -6 7 -3 21 2 30 10
37 33 81 20 111 -34 12 -21 19 -39 15 -39 -3 0 -2 -6 4 -13 7 -8 7 -18 2 -27
-5 -9 -5 -17 0 -20 5 -3 11 -15 12 -25 3 -28 -22 -135 -32 -135 -4 0 -11 -19
-15 -42 -4 -24 -9 -56 -12 -73 -3 -16 -5 -42 -4 -57 1 -16 -3 -28 -9 -28 -6 0
-6 -9 0 -24 5 -13 6 -27 3 -30 -4 -3 -1 -6 6 -6 7 0 3 -9 -8 -22 -15 -16 -18
-25 -10 -34 6 -7 13 -28 16 -46 3 -18 10 -36 15 -39 7 -5 2 -19 -13 -40 -13
-19 -24 -36 -24 -39 -1 -13 -31 -50 -40 -50 -6 0 -16 -9 -23 -20 -10 -17 -10
-21 3 -26 11 -5 13 -10 5 -19 -12 -14 -3 -46 17 -58 25 -15 13 -28 -22 -24
-19 2 -38 6 -41 10 -4 3 -15 2 -25 -3 -12 -7 -22 -6 -32 5 -8 8 -18 11 -22 7
-4 -4 -12 -7 -18 -7 -7 0 -13 -12 -15 -27 -3 -29 -22 -40 -22 -13 0 17 -25 21
-35 5 -3 -5 -12 -7 -20 -3 -8 3 -15 0 -15 -7 0 -6 5 -8 11 -4 7 4 10 1 7 -7
-3 -8 -14 -15 -26 -17 -16 -2 -22 -10 -22 -27 0 -17 -9 -29 -31 -41 -27 -13
-30 -20 -25 -45 6 -30 -6 -37 -33 -20 -9 6 -19 4 -28 -5 -19 -18 -33 -18 -33
2 0 11 -6 14 -21 9 -17 -6 -20 -4 -15 13 9 27 -18 49 -40 31 -12 -10 -17 -10
-23 0 -4 6 -19 12 -32 12 -13 1 -35 3 -48 6 -20 3 -22 6 -10 15 10 7 5 8 -18
4 -26 -4 -31 -3 -26 10 5 13 1 15 -15 10 -37 -12 -33 12 10 53 23 23 46 41 51
41 9 0 42 70 39 83 -1 4 3 7 10 7 14 0 58 40 58 52 0 5 7 16 15 24 8 9 15 24
15 35 0 10 5 19 10 19 6 0 10 -4 10 -10 0 -5 8 -10 18 -10 10 0 13 3 6 8 -21
14 -8 50 33 90 49 49 88 99 112 144 10 18 43 73 75 122 66 105 119 253 74 208
-27 -27 -37 -9 -14 23 11 16 17 17 28 7 13 -10 21 -2 53 50 21 35 43 66 49 70
6 4 7 10 3 14 -4 4 -13 2 -19 -4 -14 -14 -42 -16 -34 -3 3 5 -3 11 -14 14 -23
6 -35 -7 -23 -25 12 -20 14 -48 3 -48 -6 0 -10 -7 -10 -15 0 -8 -3 -15 -8 -15
-4 0 -7 38 -7 85 0 81 1 85 25 94 59 23 110 26 110 7z m2330 -147 c-7 -16 -17
-29 -22 -29 -5 0 -7 6 -4 13 3 6 11 32 18 57 12 41 13 42 16 16 2 -15 -2 -41
-8 -57z m-3060 6 c7 -9 11 -18 8 -21 -8 -7 -58 14 -58 26 0 15 36 12 50 -5z
m-1260 -65 c-6 -11 -15 -18 -21 -15 -15 10 -11 23 9 28 9 3 18 5 20 6 1 0 -2
-8 -8 -19z m3440 -133 c-27 -106 -73 -197 -134 -264 -27 -30 -51 -52 -53 -49
-3 2 14 30 37 62 56 75 122 219 146 319 15 64 20 74 22 47 2 -18 -6 -69 -18
-115z m880 94 c0 -6 -4 -13 -10 -16 -5 -3 -10 1 -10 9 0 9 5 16 10 16 6 0 10
-4 10 -9z m-2521 -117 c-21 -42 -39 -64 -39 -49 0 18 54 117 58 106 2 -7 -6
-33 -19 -57z m-49 -98 c0 -3 -4 -8 -10 -11 -5 -3 -10 -1 -10 4 0 6 5 11 10 11
6 0 10 -2 10 -4z m2535 -41 c18 -15 18 -16 2 -11 -10 3 -22 6 -26 6 -10 0 -51
35 -51 44 0 8 48 -17 75 -39z m-3935 15 c0 -5 -7 -10 -16 -10 -8 0 -12 5 -9
10 3 6 10 10 16 10 5 0 9 -4 9 -10z m-100 -30 c0 -5 -4 -10 -10 -10 -5 0 -10
5 -10 10 0 6 5 10 10 10 6 0 10 -4 10 -10z m1150 0 c0 -5 -4 -10 -10 -10 -5 0
-10 5 -10 10 0 6 5 10 10 10 6 0 10 -4 10 -10z m242 -109 c-15 -21 -29 -37
-31 -35 -2 2 -11 -2 -19 -9 -22 -17 -9 3 30 47 42 48 55 46 20 -3z m-257 -91
c3 -5 -1 -10 -10 -10 -9 0 -13 5 -10 10 3 6 8 10 10 10 2 0 7 -4 10 -10z m355
-400 c0 -5 -5 -10 -11 -10 -5 0 -7 5 -4 10 3 6 8 10 11 10 2 0 4 -4 4 -10z
m-1173 -92 c-3 -8 -6 -5 -6 6 -1 11 2 17 5 13 3 -3 4 -12 1 -19z m1063 -48 c0
-5 -4 -10 -10 -10 -5 0 -10 5 -10 10 0 6 5 10 10 10 6 0 10 -4 10 -10z m23 -5
c-3 -9 -8 -14 -10 -11 -3 3 -2 9 2 15 9 16 15 13 8 -4z m-169 -30 c-4 -8 -16
-15 -27 -15 -20 0 -20 0 -1 15 25 19 35 19 28 0z m254 -12 c3 -19 7 -21 27
-13 18 7 27 4 41 -11 16 -17 16 -22 4 -30 -8 -5 -21 -7 -29 -4 -7 3 -19 0 -27
-5 -7 -6 -37 -13 -66 -14 -67 -4 -232 20 -236 34 -2 5 -8 8 -13 5 -5 -4 -17
-1 -26 4 -10 6 -13 11 -8 11 6 1 45 2 87 4 44 1 84 8 93 16 8 7 27 10 43 7 15
-3 38 1 52 9 33 18 54 14 58 -13z m-249 -104 c55 -26 78 -31 140 -31 41 0 88
-6 106 -14 18 -7 35 -11 38 -8 3 4 16 -1 29 -10 12 -9 29 -16 38 -16 8 0 21
-9 28 -20 7 -12 17 -18 22 -15 14 9 12 -9 -2 -23 -9 -9 -9 -12 0 -12 7 0 12
-7 12 -15 0 -8 5 -15 10 -15 6 0 10 -7 10 -15 0 -8 9 -19 20 -25 19 -10 19
-11 -9 -40 -15 -17 -33 -30 -38 -30 -10 0 -43 -43 -43 -56 0 -3 7 -1 16 7 9 7
24 13 35 14 10 1 28 10 39 20 22 20 34 16 24 -9 -3 -9 -14 -16 -24 -16 -9 0
-25 -9 -35 -20 -15 -17 -16 -24 -6 -47 8 -18 15 -23 23 -15 17 17 39 3 32 -22
-4 -11 -12 -24 -18 -29 -6 -4 10 -5 36 -3 33 3 46 1 41 -7 -4 -6 0 -8 10 -4 9
3 19 2 22 -2 2 -5 -5 -11 -17 -14 -13 -4 -26 -1 -30 6 -5 8 -8 4 -8 -10 0 -16
4 -21 15 -17 15 6 21 -19 17 -68 -1 -10 3 -18 9 -18 5 0 7 -5 3 -11 -4 -7 -9
-8 -13 -1 -4 7 -13 5 -25 -4 -18 -13 -18 -14 -2 -14 11 0 16 -6 14 -17 -2 -11
-13 -18 -28 -18 -17 0 -26 -7 -30 -24 -3 -14 -10 -26 -16 -28 -14 -5 -12 41 3
59 18 21 4 30 -19 13 -11 -7 -27 -11 -34 -8 -8 3 -14 -1 -14 -8 0 -11 -2 -11
-9 0 -8 12 -14 13 -36 3 -33 -15 -36 -15 -29 3 5 12 -2 15 -30 15 -30 0 -36
-3 -34 -17 2 -13 -3 -18 -21 -17 -13 0 -32 -7 -43 -18 -25 -25 -40 -23 -32 7
5 20 2 25 -21 31 -23 6 -26 10 -21 35 4 20 1 29 -7 29 -7 0 -13 8 -14 18 -4
52 -40 105 -88 128 -31 14 -33 19 -28 50 4 25 2 35 -10 40 -20 7 -67 86 -67
111 0 10 -7 29 -16 42 -19 26 -27 101 -12 101 7 0 8 21 4 54 -6 46 -5 56 11
65 29 17 52 13 122 -20z m-679 -106 c-1 -9 -25 -43 -31 -43 -2 0 -5 11 -5 25
-2 18 3 25 17 25 10 0 19 -3 19 -7z m1197 -80 c-4 -3 1 -12 11 -20 16 -13 16
-14 -3 -11 -21 3 -34 38 -14 38 7 0 9 -3 6 -7z m33 -53 c0 -5 -4 -10 -9 -10
-6 0 -13 5 -16 10 -3 6 1 10 9 10 9 0 16 -4 16 -10z m60 -59 c0 -20 -27 -48
-36 -38 -4 3 -4 18 0 32 7 29 36 34 36 6z m113 -1 c-3 -12 -8 -19 -11 -16 -5
6 5 36 12 36 2 0 2 -9 -1 -20z m94 -17 c-3 -10 -5 -4 -5 12 0 17 2 24 5 18 2
-7 2 -21 0 -30z m-126 -56 c-8 -8 -11 -5 -11 9 0 27 14 41 18 19 2 -9 -1 -22
-7 -28z m-91 -208 c0 -14 -26 -11 -39 5 -9 11 -6 12 14 8 14 -2 25 -8 25 -13z
m-318 -156 c-4 -52 -14 -72 -33 -73 -4 0 -10 11 -13 24 -4 17 2 37 21 65 15
23 27 41 28 41 1 0 0 -26 -3 -57z m-122 13 c0 -3 -4 -8 -10 -11 -5 -3 -10 -1
-10 4 0 6 5 11 10 11 6 0 10 -2 10 -4z m279 -107 c-17 -11 -21 -11 -38 0 -7 5
-10 14 -7 20 10 15 29 14 21 -1 -3 -7 0 -5 7 4 11 16 13 16 21 2 6 -11 5 -19
-4 -25z m-169 1 c0 -5 -5 -10 -11 -10 -5 0 -7 5 -4 10 3 6 8 10 11 10 2 0 4
-4 4 -10z m215 -569 c3 -5 1 -12 -5 -16 -5 -3 -10 1 -10 9 0 18 6 21 15 7z
m145 -41 c0 -5 -4 -10 -10 -10 -5 0 -10 5 -10 10 0 6 5 10 10 10 6 0 10 -4 10
-10z m15 -120 c3 -5 2 -10 -4 -10 -5 0 -13 5 -16 10 -3 6 -2 10 4 10 5 0 13
-4 16 -10z m75 -704 c0 -11 -19 -15 -25 -6 -3 5 1 10 9 10 9 0 16 -2 16 -4z"/>
<path d="M3571 3806 c-36 -44 98 -121 164 -95 16 6 16 8 4 8 -19 1 -33 28 -19
36 17 11 11 23 -24 44 -39 24 -108 28 -125 7z"/>
<path d="M3540 3505 c-8 -9 -8 -15 -2 -15 12 0 26 19 19 26 -2 2 -10 -2 -17
-11z"/>
<path d="M3852 2787 c-9 -11 -10 -17 -2 -22 15 -9 23 -1 18 21 -3 15 -4 16
-16 1z"/>
<path d="M3683 2683 c-17 -6 -16 -23 1 -23 8 0 16 7 20 15 6 15 1 17 -21 8z"/>
<path d="M3615 2640 c-3 -5 -2 -10 4 -10 5 0 13 5 16 10 3 6 2 10 -4 10 -5 0
-13 -4 -16 -10z"/>
<path d="M3663 7173 c9 -2 23 -2 30 0 6 3 -1 5 -18 5 -16 0 -22 -2 -12 -5z"/>
<path d="M3411 7154 c0 -11 3 -14 6 -6 3 7 2 16 -1 19 -3 4 -6 -2 -5 -13z"/>
<path d="M5865 6240 c3 -5 8 -10 11 -10 2 0 4 5 4 10 0 6 -5 10 -11 10 -5 0
-7 -4 -4 -10z"/>
<path d="M2079 5988 c-21 -45 -92 -88 -161 -97 l-63 -8 53 -2 c29 0 68 5 86
13 41 17 116 83 116 102 0 22 -19 16 -31 -8z"/>
<path d="M4035 5919 c-10 -14 -1 -21 19 -13 9 3 13 10 10 15 -7 12 -21 11 -29
-2z"/>
<path d="M4120 5820 c0 -5 5 -10 10 -10 6 0 10 5 10 10 0 6 -4 10 -10 10 -5 0
-10 -4 -10 -10z"/>
<path d="M2986 5763 c-6 -14 -5 -15 5 -6 7 7 10 15 7 18 -3 3 -9 -2 -12 -12z"/>
<path d="M4173 5618 c-13 -23 -13 -48 1 -48 7 0 16 11 18 25 6 28 -6 42 -19
23z"/>
<path d="M4132 5568 c-14 -14 -16 -28 -3 -28 9 0 24 30 18 36 -2 2 -9 -2 -15
-8z"/>
<path d="M4200 5563 c0 -5 5 -15 10 -23 8 -12 10 -11 10 8 0 12 -4 22 -10 22
-5 0 -10 -3 -10 -7z"/>
<path d="M1505 5330 c-2 -3 2 -12 8 -21 11 -14 15 -14 40 1 l29 18 -37 4 c-20
2 -38 2 -40 -2z"/>
<path d="M4415 5300 c3 -5 8 -10 11 -10 2 0 4 5 4 10 0 6 -5 10 -11 10 -5 0
-7 -4 -4 -10z"/>
<path d="M1496 5095 c10 -8 24 -14 29 -14 6 0 1 6 -9 14 -11 8 -24 15 -30 15
-5 0 -1 -7 10 -15z"/>
<path d="M3080 5060 c0 -5 5 -10 11 -10 5 0 7 5 4 10 -3 6 -8 10 -11 10 -2 0
-4 -4 -4 -10z"/>
<path d="M2525 4520 c3 -5 8 -10 11 -10 2 0 4 5 4 10 0 6 -5 10 -11 10 -5 0
-7 -4 -4 -10z"/>
<path d="M3667 4473 c-4 -3 -7 -14 -7 -23 0 -10 -7 -23 -15 -30 -21 -17 -19
-29 3 -23 15 4 42 52 42 76 0 9 -15 9 -23 0z"/>
<path d="M3140 4235 c0 -8 6 -15 14 -15 7 0 19 7 26 15 11 13 8 15 -14 15 -16
0 -26 -5 -26 -15z"/>
<path d="M3345 4159 c-4 -6 -5 -13 -2 -16 7 -7 27 6 27 18 0 12 -17 12 -25 -2z"/>
<path d="M3400 4020 c-9 -6 -10 -10 -3 -10 6 0 15 5 18 10 8 12 4 12 -15 0z"/>
<path d="M5780 3700 c6 -11 15 -20 20 -20 14 0 12 9 -4 26 -21 20 -28 17 -16
-6z"/>
<path d="M2275 3621 c-3 -5 -1 -12 5 -16 5 -3 10 1 10 9 0 18 -6 21 -15 7z"/>
<path d="M2286 3575 c4 -9 16 -21 28 -27 19 -10 19 -9 -3 16 -28 30 -33 32
-25 11z"/>
<path d="M5275 2110 c3 -5 13 -10 21 -10 8 0 14 5 14 10 0 6 -9 10 -21 10 -11
0 -17 -4 -14 -10z"/>
<path d="M2823 1795 c0 -33 2 -45 4 -27 2 18 2 45 0 60 -2 15 -4 0 -4 -33z"/>
<path d="M3918 1716 c-10 -7 -15 -15 -12 -18 9 -10 42 3 48 18 7 18 -13 18
-36 0z"/>
<path d="M2823 1685 c0 -22 2 -30 4 -17 2 12 2 30 0 40 -3 9 -5 -1 -4 -23z"/>
<path d="M3985 1690 c3 -5 8 -10 11 -10 2 0 4 5 4 10 0 6 -5 10 -11 10 -5 0
-7 -4 -4 -10z"/>
<path d="M3958 1643 c6 -2 18 -2 25 0 6 3 1 5 -13 5 -14 0 -19 -2 -12 -5z"/>
<path d="M2832 1610 c0 -14 2 -19 5 -12 2 6 2 18 0 25 -3 6 -5 1 -5 -13z"/>
<path d="M2841 1570 c0 -8 4 -22 9 -30 12 -18 12 -2 0 25 -6 13 -9 15 -9 5z"/>
<path d="M2870 1495 c0 -5 5 -17 10 -25 5 -8 10 -10 10 -5 0 6 -5 17 -10 25
-5 8 -10 11 -10 5z"/>
<path d="M2905 1420 c9 -16 18 -30 21 -30 2 0 -2 14 -11 30 -9 17 -18 30 -21
30 -2 0 2 -13 11 -30z"/>
<path d="M3992 1398 c2 -6 15 -12 28 -13 21 -2 22 -1 5 12 -23 16 -38 17 -33
1z"/>
<path d="M5482 1367 c-7 -16 -12 -34 -12 -41 0 -6 -6 -18 -12 -25 -11 -11 -10
-13 2 -9 8 3 17 15 19 29 1 13 8 27 13 30 5 4 8 15 6 25 -4 16 -7 14 -16 -9z"/>
<path d="M4025 1330 c3 -5 8 -10 11 -10 2 0 4 5 4 10 0 6 -5 10 -11 10 -5 0
-7 -4 -4 -10z"/>
<path d="M5400 1291 c0 -11 -4 -23 -10 -26 -5 -3 -10 -16 -10 -28 0 -12 -7
-31 -15 -41 -8 -11 -15 -27 -15 -35 1 -28 40 29 40 58 0 32 19 63 27 43 2 -7
11 -19 19 -26 8 -8 11 -22 8 -30 -5 -12 -2 -15 10 -10 11 4 16 16 14 33 -3 24
0 26 32 23 19 -1 75 -23 124 -47 103 -52 128 -54 34 -3 -72 39 -136 63 -191
73 -21 3 -41 13 -44 21 -8 21 -23 17 -23 -5z"/>
<path d="M5916 1036 c3 -9 10 -16 14 -16 4 0 10 -10 14 -22 5 -18 8 -20 15 -9
6 9 11 10 15 2 4 -6 15 -11 24 -11 12 0 7 6 -13 20 -16 11 -40 27 -53 36 -21
15 -22 15 -16 0z"/>
<path d="M3925 920 c-3 -5 -2 -10 4 -10 5 0 13 5 16 10 3 6 2 10 -4 10 -5 0
-13 -4 -16 -10z"/>
<path d="M3845 830 c-3 -6 1 -7 9 -4 18 7 21 14 7 14 -6 0 -13 -4 -16 -10z"/>
<path d="M5065 770 c-16 -16 -24 -30 -19 -30 9 0 32 23 48 48 12 20 1 13 -29
-18z"/>
<path d="M6921 666 c2 -2 15 -9 29 -15 24 -11 24 -11 6 3 -16 13 -49 24 -35
12z"/>
<path d="M4720 448 c-19 -16 -26 -26 -15 -20 18 9 64 53 54 52 -2 -1 -20 -15
-39 -32z"/>
<path d="M7715 360 c10 -11 20 -20 23 -20 3 0 -3 9 -13 20 -10 11 -20 20 -23
20 -3 0 3 -9 13 -20z"/>
<path d="M4010 321 c0 -27 9 -30 41 -14 35 17 35 18 -8 26 -27 5 -33 3 -33
-12z"/>
<path d="M4020 280 c-8 -5 -11 -12 -8 -15 4 -4 17 0 30 9 24 17 5 23 -22 6z"/>
<path d="M3756 81 c-4 -5 3 -7 14 -4 23 6 26 13 6 13 -8 0 -17 -4 -20 -9z"/>
</g>
</svg>
